<svg width="64" height="64" viewBox="0 0 64 64" fill="none" xmlns="http://www.w3.org/2000/svg">
<g id="alert-line" clip-path="url(#clip0_666_7760)">
<path id="Vector" d="M34.3102 7.99996L59.7129 52C59.947 52.4053 60.0702 52.8652 60.0702 53.3333C60.0702 53.8014 59.947 54.2612 59.7129 54.6666C59.4789 55.072 59.1423 55.4086 58.7369 55.6427C58.3315 55.8767 57.8717 56 57.4036 56H6.59824C6.13015 56 5.67031 55.8767 5.26493 55.6427C4.85956 55.4086 4.52293 55.072 4.28889 54.6666C4.05485 54.2612 3.93164 53.8014 3.93164 53.3333C3.93164 52.8652 4.05486 52.4053 4.28891 52L29.6916 7.99996C29.9256 7.59461 30.2623 7.25801 30.6676 7.02398C31.073 6.78995 31.5328 6.66675 32.0009 6.66675C32.469 6.66675 32.9288 6.78995 33.3342 7.02398C33.7396 7.25801 34.0762 7.59461 34.3102 7.99996ZM11.2169 50.6666H52.7849L32.0009 14.6666L11.2169 50.6666ZM29.3342 42.6666H34.6676V48H29.3342V42.6666ZM29.3342 24H34.6676V37.3333H29.3342V24Z" fill="#FF3B3B"/>
</g>
<defs>
<clipPath id="clip0_666_7760">
<rect width="64" height="64" fill="white"/>
</clipPath>
</defs>
</svg>
