<svg width="16" height="16" viewBox="0 0 16 16" fill="none" xmlns="http://www.w3.org/2000/svg">
<g id="flag-2-line" clip-path="url(#clip0_666_7353)">
<path id="Vector" d="M2.66732 11.3333V14.6667H1.33398V2H14.0927C14.1511 1.9999 14.2085 2.01516 14.2592 2.04426C14.3099 2.07335 14.352 2.11525 14.3814 2.16576C14.4107 2.21627 14.4263 2.27361 14.4265 2.33204C14.4268 2.39047 14.4116 2.44793 14.3827 2.49867L12.0007 6.66667L14.3827 10.8347C14.4116 10.8854 14.4268 10.9429 14.4265 11.0013C14.4263 11.0597 14.4107 11.1171 14.3814 11.1676C14.352 11.2181 14.3099 11.26 14.2592 11.2891C14.2085 11.3182 14.1511 11.3334 14.0927 11.3333H2.66732ZM2.66732 3.33333V10H12.37L10.4647 6.66667L12.37 3.33333H2.66732Z" fill="#282828"/>
</g>
<defs>
<clipPath id="clip0_666_7353">
<rect width="16" height="16" fill="white"/>
</clipPath>
</defs>
</svg>
