<svg width="16" height="16" viewBox="0 0 16 16" fill="none" xmlns="http://www.w3.org/2000/svg">
<g id="delete-bin-7-line" clip-path="url(#clip0_666_7359)">
<path id="Vector" d="M11.334 4.00004H14.6673V5.33337H13.334V14C13.334 14.1769 13.2637 14.3464 13.1387 14.4714C13.0137 14.5965 12.8441 14.6667 12.6673 14.6667H3.33398C3.15717 14.6667 2.9876 14.5965 2.86258 14.4714C2.73756 14.3464 2.66732 14.1769 2.66732 14V5.33337H1.33398V4.00004H4.66732V2.00004C4.66732 1.82323 4.73756 1.65366 4.86258 1.52864C4.9876 1.40361 5.15717 1.33337 5.33398 1.33337H10.6673C10.8441 1.33337 11.0137 1.40361 11.1387 1.52864C11.2637 1.65366 11.334 1.82323 11.334 2.00004V4.00004ZM12.0007 5.33337H4.00065V13.3334H12.0007V5.33337ZM6.00065 2.66671V4.00004H10.0007V2.66671H6.00065Z" fill="#FF3B3B"/>
</g>
<defs>
<clipPath id="clip0_666_7359">
<rect width="16" height="16" fill="white"/>
</clipPath>
</defs>
</svg>
