<svg width="16" height="16" viewBox="0 0 16 16" fill="none" xmlns="http://www.w3.org/2000/svg">
<g id="edit-box-line" clip-path="url(#clip0_879_25434)">
<path id="Vector" d="M11.1713 2.00002L9.838 3.33336H3.33333V12.6667H12.6667V6.16202L14 4.82869V13.3334C14 13.5102 13.9298 13.6797 13.8047 13.8048C13.6797 13.9298 13.5101 14 13.3333 14H2.66667C2.48986 14 2.32029 13.9298 2.19526 13.8048C2.07024 13.6797 2 13.5102 2 13.3334V2.66669C2 2.48988 2.07024 2.32031 2.19526 2.19529C2.32029 2.07026 2.48986 2.00002 2.66667 2.00002H11.1713V2.00002ZM13.6567 1.40002L14.6 2.34402L8.472 8.47202L7.53067 8.47402L7.52933 7.52936L13.6567 1.40002V1.40002Z" fill="black"/>
</g>
<defs>
<clipPath id="clip0_879_25434">
<rect width="16" height="16" fill="white"/>
</clipPath>
</defs>
</svg>
