<svg width="16" height="16" viewBox="0 0 16 16" fill="none" xmlns="http://www.w3.org/2000/svg">
<g id="logout-box-line" clip-path="url(#clip0_666_7356)">
<path id="Vector" d="M2.66602 12H3.99935V13.3334H11.9993V2.66671H3.99935V4.00004H2.66602V2.00004C2.66602 1.82323 2.73625 1.65366 2.86128 1.52864C2.9863 1.40361 3.15587 1.33337 3.33268 1.33337H12.666C12.8428 1.33337 13.0124 1.40361 13.1374 1.52864C13.2624 1.65366 13.3327 1.82323 13.3327 2.00004V14C13.3327 14.1769 13.2624 14.3464 13.1374 14.4714C13.0124 14.5965 12.8428 14.6667 12.666 14.6667H3.33268C3.15587 14.6667 2.9863 14.5965 2.86128 14.4714C2.73625 14.3464 2.66602 14.1769 2.66602 14V12ZM3.99935 7.33337H8.66602V8.66671H3.99935V10.6667L0.666016 8.00004L3.99935 5.33337V7.33337Z" fill="#282828"/>
</g>
<defs>
<clipPath id="clip0_666_7356">
<rect width="16" height="16" fill="white"/>
</clipPath>
</defs>
</svg>
