<svg width="24" height="24" viewBox="0 0 24 24" fill="none" xmlns="http://www.w3.org/2000/svg">
<g clip-path="url(#clip0_8_7039)">
<path d="M11.246 15H4.75398L2.75398 20H0.599976L6.99998 4H8.99998L15.4 20H13.246L11.246 15ZM10.446 13L7.99998 6.885L5.55398 13H10.446ZM21 12.535V12H23V20H21V19.465C20.3919 19.8157 19.7022 20.0002 19.0002 20C18.2982 19.9998 17.6086 19.8148 17.0008 19.4637C16.3929 19.1125 15.8881 18.6076 15.5372 17.9996C15.1863 17.3916 15.0015 16.702 15.0015 16C15.0015 15.298 15.1863 14.6084 15.5372 14.0004C15.8881 13.3924 16.3929 12.8875 17.0008 12.5363C17.6086 12.1852 18.2982 12.0002 19.0002 12C19.7022 11.9998 20.3919 12.1843 21 12.535ZM19 18C19.5304 18 20.0391 17.7893 20.4142 17.4142C20.7893 17.0391 21 16.5304 21 16C21 15.4696 20.7893 14.9609 20.4142 14.5858C20.0391 14.2107 19.5304 14 19 14C18.4695 14 17.9608 14.2107 17.5858 14.5858C17.2107 14.9609 17 15.4696 17 16C17 16.5304 17.2107 17.0391 17.5858 17.4142C17.9608 17.7893 18.4695 18 19 18Z" fill="black"/>
</g>
<defs>
<clipPath id="clip0_8_7039">
<rect width="24" height="24" fill="white"/>
</clipPath>
</defs>
</svg>
