<svg width="25" height="24" viewBox="0 0 25 24" fill="none" xmlns="http://www.w3.org/2000/svg">
<g clip-path="url(#clip0_3889_366)">
<path d="M12.4414 22C6.91841 22 2.44141 17.523 2.44141 12C2.44141 6.477 6.91841 2 12.4414 2C17.9644 2 22.4414 6.477 22.4414 12C22.4414 17.523 17.9644 22 12.4414 22ZM12.4414 20C14.5631 20 16.598 19.1571 18.0983 17.6569C19.5986 16.1566 20.4414 14.1217 20.4414 12C20.4414 9.87827 19.5986 7.84344 18.0983 6.34315C16.598 4.84285 14.5631 4 12.4414 4C10.3197 4 8.28484 4.84285 6.78455 6.34315C5.28426 7.84344 4.44141 9.87827 4.44141 12C4.44141 14.1217 5.28426 16.1566 6.78455 17.6569C8.28484 19.1571 10.3197 20 12.4414 20ZM11.4414 15H13.4414V17H11.4414V15ZM11.4414 7H13.4414V13H11.4414V7Z" fill="white"/>
</g>
<defs>
<clipPath id="clip0_3889_366">
<rect width="24" height="24" fill="white" transform="translate(0.441406)"/>
</clipPath>
</defs>
</svg>
