<svg width="16" height="16" viewBox="0 0 16 16" fill="none" xmlns="http://www.w3.org/2000/svg">
<g clip-path="url(#clip0_3351_4369)">
<path d="M7.49724 10.0003H3.16924L1.8359 13.3337H0.399902L4.66657 2.66699H5.9999L10.2666 13.3337H8.83057L7.49724 10.0003ZM6.9639 8.66699L5.33324 4.59033L3.70257 8.66699H6.9639ZM13.9999 8.35699V8.00033H15.3332V13.3337H13.9999V12.977C13.5945 13.2108 13.1347 13.3338 12.6667 13.3337C12.1987 13.3335 11.739 13.2102 11.3338 12.9761C10.9285 12.742 10.592 12.4054 10.3581 12.0001C10.1241 11.5947 10.0009 11.135 10.0009 10.667C10.0009 10.199 10.1241 9.73924 10.3581 9.33392C10.592 8.9286 10.9285 8.59198 11.3338 8.35789C11.739 8.1238 12.1987 8.00048 12.6667 8.00033C13.1347 8.00017 13.5945 8.12318 13.9999 8.35699ZM12.6666 12.0003C13.0202 12.0003 13.3593 11.8598 13.6094 11.6098C13.8594 11.3598 13.9999 11.0206 13.9999 10.667C13.9999 10.3134 13.8594 9.97423 13.6094 9.72418C13.3593 9.47413 13.0202 9.33366 12.6666 9.33366C12.3129 9.33366 11.9738 9.47413 11.7238 9.72418C11.4737 9.97423 11.3332 10.3134 11.3332 10.667C11.3332 11.0206 11.4737 11.3598 11.7238 11.6098C11.9738 11.8598 12.3129 12.0003 12.6666 12.0003Z" fill="#8F8F8F"/>
</g>
<defs>
<clipPath id="clip0_3351_4369">
<rect width="16" height="16" fill="white"/>
</clipPath>
</defs>
</svg>
