<svg width="24" height="24" viewBox="0 0 24 24" fill="none" xmlns="http://www.w3.org/2000/svg">
<g clip-path="url(#clip0_3889_3236)">
<path d="M1.17969 12C2.11969 6.88 6.60669 3 11.9987 3C17.3907 3 21.8767 6.88 22.8177 12C21.8777 17.12 17.3907 21 11.9987 21C6.60669 21 2.12069 17.12 1.17969 12ZM11.9987 17C13.3248 17 14.5965 16.4732 15.5342 15.5355C16.4719 14.5979 16.9987 13.3261 16.9987 12C16.9987 10.6739 16.4719 9.40215 15.5342 8.46447C14.5965 7.52678 13.3248 7 11.9987 7C10.6726 7 9.40084 7.52678 8.46315 8.46447C7.52547 9.40215 6.99869 10.6739 6.99869 12C6.99869 13.3261 7.52547 14.5979 8.46315 15.5355C9.40084 16.4732 10.6726 17 11.9987 17ZM11.9987 15C11.203 15 10.44 14.6839 9.87737 14.1213C9.31476 13.5587 8.99869 12.7956 8.99869 12C8.99869 11.2044 9.31476 10.4413 9.87737 9.87868C10.44 9.31607 11.203 9 11.9987 9C12.7943 9 13.5574 9.31607 14.12 9.87868C14.6826 10.4413 14.9987 11.2044 14.9987 12C14.9987 12.7956 14.6826 13.5587 14.12 14.1213C13.5574 14.6839 12.7943 15 11.9987 15Z" fill="white"/>
</g>
<defs>
<clipPath id="clip0_3889_3236">
<rect width="24" height="24" fill="white"/>
</clipPath>
</defs>
</svg>
