<svg width="12" height="12" viewBox="0 0 12 12" fill="none" xmlns="http://www.w3.org/2000/svg">
<g id="checkbox-circle-line" clip-path="url(#clip0_434_7767)">
<path id="Vector" d="M6 11C3.2385 11 1 8.7615 1 6C1 3.2385 3.2385 1 6 1C8.7615 1 11 3.2385 11 6C11 8.7615 8.7615 11 6 11ZM6 10C7.06087 10 8.07828 9.57857 8.82843 8.82843C9.57857 8.07828 10 7.06087 10 6C10 4.93913 9.57857 3.92172 8.82843 3.17157C8.07828 2.42143 7.06087 2 6 2C4.93913 2 3.92172 2.42143 3.17157 3.17157C2.42143 3.92172 2 4.93913 2 6C2 7.06087 2.42143 8.07828 3.17157 8.82843C3.92172 9.57857 4.93913 10 6 10ZM5.5015 8L3.38 5.8785L4.087 5.1715L5.5015 6.586L8.3295 3.7575L9.037 4.4645L5.5015 8Z" fill="#E52165"/>
</g>
<defs>
<clipPath id="clip0_434_7767">
<rect width="12" height="12" fill="white"/>
</clipPath>
</defs>
</svg>
